<svg width="17" height="23" viewBox="0 0 17 23" fill="none" xmlns="http://www.w3.org/2000/svg">
<path d="M14.875 7.1875H2.125C0.95138 7.1875 0 8.15287 0 9.34375V19.4062C0 20.5971 0.95138 21.5625 2.125 21.5625H2.83333V22.2812C2.83333 22.6784 3.15031 23 3.54167 23H4.95833C5.34969 23 5.66667 22.6784 5.66667 22.2812V21.5625H11.3333V22.2812C11.3333 22.6784 11.6503 23 12.0417 23H13.4583C13.8497 23 14.1667 22.6784 14.1667 22.2812V21.5625H14.875C16.0486 21.5625 17 20.5971 17 19.4062V9.34375C17 8.15287 16.0486 7.1875 14.875 7.1875ZM14.1667 16.8906C14.1667 17.0892 14.0082 17.25 13.8125 17.25H3.1875C2.99182 17.25 2.83333 17.0892 2.83333 16.8906V16.1719C2.83333 15.9733 2.99182 15.8125 3.1875 15.8125H13.8125C14.0082 15.8125 14.1667 15.9733 14.1667 16.1719V16.8906ZM14.1667 12.5781C14.1667 12.7767 14.0082 12.9375 13.8125 12.9375H3.1875C2.99182 12.9375 2.83333 12.7767 2.83333 12.5781V11.8594C2.83333 11.6608 2.99182 11.5 3.1875 11.5H13.8125C14.0082 11.5 14.1667 11.6608 14.1667 11.8594V12.5781ZM6.375 2.15625H10.625V5.75H12.75V2.15625C12.75 0.965371 11.7986 0 10.625 0H6.375C5.20138 0 4.25 0.965371 4.25 2.15625V5.75H6.375V2.15625Z" fill="black"/>
</svg>
