<svg width="32" height="32" viewBox="0 0 32 32" fill="none" xmlns="http://www.w3.org/2000/svg">
<path d="M11.6638 29H10.0001C9.83292 28.9999 9.66843 28.958 9.52166 28.8779C9.37489 28.7979 9.25053 28.6824 9.15995 28.5418C9.06936 28.4013 9.01545 28.2404 9.00314 28.0737C8.99083 27.9069 9.0205 27.7398 9.08946 27.5875L13.1182 18.6969L7.06884 18.5625L4.86259 21.2356C4.44197 21.7644 4.10634 22 3.25009 22H2.13009C1.95276 22.0057 1.77667 21.9686 1.61673 21.8918C1.4568 21.815 1.31774 21.7007 1.21134 21.5588C1.06259 21.3581 0.91634 21.0181 1.05884 20.5331L2.29759 16.0956C2.30696 16.0625 2.31822 16.0294 2.33072 15.9969C2.33134 15.9938 2.33134 15.9906 2.33072 15.9875C2.31781 15.955 2.30675 15.9218 2.29759 15.8881L1.05759 11.4225C0.923215 10.9469 1.07009 10.6144 1.21759 10.4187C1.31664 10.2873 1.44514 10.181 1.59277 10.1082C1.7404 10.0355 1.90303 9.99844 2.06759 10H3.25009C3.88947 10 4.51009 10.2869 4.87509 10.75L7.03572 13.3781L13.1182 13.2881L9.09071 4.41313C9.02166 4.26091 8.99186 4.09381 9.00405 3.9271C9.01623 3.7604 9.07001 3.59941 9.16046 3.45885C9.25092 3.31829 9.37516 3.20264 9.52184 3.12249C9.66851 3.04233 9.83294 3.00022 10.0001 3H11.682C11.9166 3.00472 12.1472 3.06223 12.3565 3.16826C12.5659 3.2743 12.7487 3.42614 12.8913 3.6125L20.707 13.1125L24.3176 13.0175C24.582 13.0031 25.3145 12.9981 25.4838 12.9981C28.9376 13 31.0001 14.1213 31.0001 16C31.0001 16.5913 30.7638 17.6875 29.1832 18.385C28.2501 18.7975 27.0051 19.0063 25.4826 19.0063C25.3151 19.0063 24.5845 19.0013 24.3163 18.9869L20.7063 18.8906L12.8713 28.3906C12.7286 28.5762 12.5459 28.7273 12.3369 28.8327C12.1279 28.9382 11.8979 28.9954 11.6638 29Z" fill="#3EDCFF"/>
</svg>
