<svg width="369" height="375" viewBox="0 0 369 375" fill="none" xmlns="http://www.w3.org/2000/svg">
<path d="M315.009 138.782C326.023 175.53 320.152 216.801 302.062 247.335C283.973 277.87 253.958 298.756 223.188 311.379C192.617 323.657 161.783 328.416 136.4 319.747C110.818 311.423 91.1776 290.414 75.8948 268.238C60.612 246.063 50.2314 222.573 48.1672 197.439C45.9035 172.65 52.1556 145.872 68.7921 130.614C84.8839 115.502 111.705 112.109 143.273 98.1049C174.986 84.645 211.445 60.5728 243.87 65.02C276.295 69.4673 303.995 102.035 315.009 138.782Z" fill="url(#paint0_linear_618_89)"/>
<path d="M120.097 57.1879C133.334 52.8899 170.875 68.1254 175.684 73.6064C180.462 79.0594 149.273 81.3134 132.34 83.8229C114.868 86.4514 97.4416 89.5909 92.6781 84.0924C87.9181 78.6709 106.878 61.5139 120.097 57.1879Z" fill="url(#paint1_linear_618_89)"/>
<path d="M211.202 47.6329C226.329 43.2159 266.894 61.3809 271.794 67.5689C276.645 73.8339 241.764 75.3949 222.724 77.6944C203.016 80.0534 183.276 83.0144 178.421 76.7774C173.535 70.5894 196.128 52.0044 211.213 47.6329" fill="url(#paint2_linear_618_89)"/>
<path d="M122.414 72.7244C131.504 66.7464 170.623 72.8609 177.217 76.6164C183.874 80.3404 158.65 87.8829 145.542 93.0349C132.064 98.3654 118.858 104.21 112.219 100.395C105.537 96.6854 113.363 78.7619 122.421 72.7244" fill="url(#paint3_linear_618_89)"/>
<path d="M159.087 44.3149C172.321 45.5014 186.247 68.6504 184.956 74.1349C183.71 79.5879 159.238 71.1599 144.828 67.4814C129.988 63.7084 114.679 60.3729 116.002 54.9199C117.28 49.4074 145.822 43.1424 159.087 44.3149Z" fill="url(#paint4_linear_618_89)"/>
<path d="M204.412 70.1974C217.695 71.3384 231.607 94.5049 230.312 99.9719C229.021 105.456 204.563 97.0109 190.153 93.3464C175.355 89.5909 160.001 86.2099 161.324 80.7429C162.577 75.2759 191.179 69.0424 204.412 70.2079" fill="url(#paint5_linear_618_89)"/>
<path d="M81.4922 224.726C81.4922 257.735 128.665 267.349 179.128 267.349C229.588 267.349 276.778 257.735 276.778 224.726C276.778 191.781 229.591 93.364 179.128 93.364C128.665 93.364 81.4922 191.784 81.4922 224.726Z" fill="url(#paint6_linear_618_89)"/>
<path d="M209.413 97.4205C209.414 99.0621 209.092 100.688 208.464 102.205C207.836 103.721 206.915 105.1 205.755 106.26C204.594 107.421 203.216 108.342 201.699 108.969C200.182 109.597 198.556 109.92 196.915 109.919H161.337C158.023 109.919 154.844 108.602 152.5 106.258C150.156 103.914 148.839 100.735 148.839 97.4205C148.839 94.1057 150.156 90.9266 152.5 88.5827C154.844 86.2388 158.023 84.922 161.337 84.922H196.911C198.553 84.9215 200.179 85.2445 201.695 85.8724C203.212 86.5003 204.59 87.4208 205.751 88.5815C206.912 89.7421 207.833 91.1201 208.462 92.6367C209.09 94.1533 209.413 95.7789 209.413 97.4205" fill="#394184"/>
<path d="M202.158 187.381C198.284 183.248 192.936 180.483 187.857 178.187C182.569 175.779 174.907 173.815 171.54 168.632C168.716 164.292 172.608 159.738 176.573 158.415C182.957 156.27 190.832 158.853 196.436 162.006C199.229 163.567 202.176 162.038 203.24 159.241C204.412 156.147 205.585 153.05 206.74 149.959C207.447 148.08 206.306 145.675 204.626 144.73C199.533 141.906 194.227 140.359 188.624 139.624V130.16C188.624 127.636 186.52 125.533 183.997 125.533H175.268C172.758 125.533 170.641 127.636 170.641 130.16V140.73C162.003 143.222 154.131 148.783 151.065 157.617C147.656 167.396 149.728 177.522 156.984 184.928C160.876 188.911 166.133 191.525 171.124 193.79C176.755 196.331 183.682 198.161 187.318 203.586C191.21 209.386 186.177 215.108 180.738 216.75C173.437 218.941 164.589 215.654 158.457 211.836C155.769 210.156 152.644 211.881 151.667 214.601L148.286 224.019C147.565 226.032 148.766 228.167 150.418 229.245C156.203 233.032 162.843 234.908 169.647 235.692V245.653C169.647 247.007 170.144 248.043 170.879 248.778C170.924 248.827 170.97 248.869 170.998 248.915C171.04 248.958 171.085 248.998 171.134 249.034C171.869 249.786 172.905 250.28 174.26 250.28H183.139C184.362 250.269 185.531 249.777 186.394 248.911C187.257 248.046 187.745 246.875 187.752 245.653V234.656C197.353 231.891 204.773 225.689 208.514 216.057C212.35 206.232 209.088 194.798 202.134 187.378" fill="#008ED6"/>
<path d="M202.158 180.99C198.284 176.874 192.936 174.109 187.857 171.813C182.569 169.405 174.907 167.442 171.54 162.244C168.716 157.932 172.608 153.365 176.573 152.028C182.957 149.896 190.832 152.465 196.436 155.619C199.229 157.197 202.176 155.647 203.24 152.854C204.412 149.76 205.585 146.68 206.74 143.586C207.447 141.692 206.306 139.288 204.626 138.357C199.533 135.518 194.227 133.985 188.624 133.236V123.772C188.624 121.263 186.52 119.159 183.997 119.159H175.268C172.758 119.159 170.641 121.263 170.641 123.772V134.342C162.003 136.838 154.131 142.41 151.065 151.244C147.656 161.023 149.728 171.148 156.984 178.54C160.876 182.523 166.133 185.152 171.124 187.402C176.755 189.943 183.682 191.774 187.318 197.199C191.21 202.995 186.177 208.721 180.738 210.373C173.437 212.567 164.589 209.281 158.457 205.448C155.769 203.779 152.644 205.508 151.667 208.213L148.286 217.646C147.565 219.641 148.766 221.793 150.418 222.871C156.203 226.644 162.843 228.534 169.647 229.318V239.279C169.647 240.616 170.144 241.656 170.879 242.405C170.924 242.454 170.97 242.496 170.998 242.541C171.046 242.577 171.092 242.616 171.134 242.66C171.869 243.395 172.905 243.892 174.26 243.892H183.139C184.359 243.881 185.525 243.392 186.388 242.53C187.25 241.668 187.74 240.502 187.752 239.283V228.272C197.353 225.51 204.773 219.319 208.514 209.676C212.35 199.855 209.088 188.407 202.134 180.987" fill="#25333A"/>
<defs>
<linearGradient id="paint0_linear_618_89" x1="0.789993" y1="243.499" x2="374.415" y2="156.363" gradientUnits="userSpaceOnUse">
<stop stop-color="#A6CFFF"/>
<stop offset="1" stop-color="#1B3ADD"/>
</linearGradient>
<linearGradient id="paint1_linear_618_89" x1="195.818" y1="70.0661" x2="195.818" y2="101.774" gradientUnits="userSpaceOnUse">
<stop stop-color="#3EDCFF"/>
<stop offset="1" stop-color="#23F7F7"/>
</linearGradient>
<linearGradient id="paint2_linear_618_89" x1="195.818" y1="70.0661" x2="195.818" y2="101.774" gradientUnits="userSpaceOnUse">
<stop stop-color="#3EDCFF"/>
<stop offset="1" stop-color="#23F7F7"/>
</linearGradient>
<linearGradient id="paint3_linear_618_89" x1="195.818" y1="70.0661" x2="195.818" y2="101.774" gradientUnits="userSpaceOnUse">
<stop stop-color="#3EDCFF"/>
<stop offset="1" stop-color="#23F7F7"/>
</linearGradient>
<linearGradient id="paint4_linear_618_89" x1="195.818" y1="70.0661" x2="195.818" y2="101.774" gradientUnits="userSpaceOnUse">
<stop stop-color="#3EDCFF"/>
<stop offset="1" stop-color="#23F7F7"/>
</linearGradient>
<linearGradient id="paint5_linear_618_89" x1="195.818" y1="70.0661" x2="195.818" y2="101.774" gradientUnits="userSpaceOnUse">
<stop stop-color="#3EDCFF"/>
<stop offset="1" stop-color="#23F7F7"/>
</linearGradient>
<linearGradient id="paint6_linear_618_89" x1="179.135" y1="93.364" x2="247" y2="234.75" gradientUnits="userSpaceOnUse">
<stop stop-color="#23F7F7"/>
<stop offset="1" stop-color="#23B7F7"/>
</linearGradient>
</defs>
</svg>
